<?xml version="1.0" encoding="UTF-8" standalone="no"?>
<!-- Created with Inkscape (http://www.inkscape.org/) -->

<svg
   width="1056"
   height="120"
   viewBox="0 0 279.4 31.75"
   version="1.1"
   id="svg1"
   inkscape:version="1.4 (86a8ad7, 2024-10-11)"
   sodipodi:docname="Banner.svg"
   xml:space="preserve"
   inkscape:export-filename="Banner.png"
   inkscape:export-xdpi="200"
   inkscape:export-ydpi="200"
   xmlns:inkscape="http://www.inkscape.org/namespaces/inkscape"
   xmlns:sodipodi="http://sodipodi.sourceforge.net/DTD/sodipodi-0.dtd"
   xmlns="http://www.w3.org/2000/svg"
   xmlns:svg="http://www.w3.org/2000/svg"><sodipodi:namedview
     id="namedview1"
     pagecolor="#ffffff"
     bordercolor="#000000"
     borderopacity="0.25"
     inkscape:showpageshadow="2"
     inkscape:pageopacity="0.0"
     inkscape:pagecheckerboard="0"
     inkscape:deskcolor="#d1d1d1"
     inkscape:document-units="mm"
     inkscape:zoom="0.8967803"
     inkscape:cx="528"
     inkscape:cy="59.657867"
     inkscape:window-width="1920"
     inkscape:window-height="974"
     inkscape:window-x="-11"
     inkscape:window-y="-11"
     inkscape:window-maximized="1"
     inkscape:current-layer="layer1" /><defs
     id="defs1" /><g
     inkscape:label="Capa 1"
     inkscape:groupmode="layer"
     id="layer1"><rect
       style="fill:#ffffff;stroke:#ffffff;stroke-width:0.404803"
       id="rect1"
       width="279.57956"
       height="31.07976"
       x="0.938353"
       y="0.52497715" /><path
       style="fill:#0000ff"
       d="m 197.55552,20.648272 c -0.0754,-0.196597 -0.10425,-2.257669 -0.064,-4.580161 l 0.0731,-4.222713 h 4.49791 4.49792 v 0.79375 0.79375 l -3.37344,0.07405 -3.37343,0.07405 v 0.918136 0.918137 h 3.0427 3.04271 v 0.926042 0.926041 h -3.03062 -3.03062 l -0.0782,1.785938 -0.0782,1.785937 -0.99431,0.08225 c -0.65295,0.05401 -1.0414,-0.04047 -1.13148,-0.275204 z m 9.931,-4.304957 v -4.642146 l 4.82865,0.07212 4.82864,0.07211 0.0837,0.727604 0.0837,0.727604 h -3.55705 c -3.83014,0 -4.27873,0.150197 -4.10517,1.3745 0.0845,0.595821 0.16419,0.611582 3.45989,0.683926 l 3.37344,0.07405 v 0.910232 0.910232 l -3.37344,0.07405 c -3.2957,0.07234 -3.37543,0.08811 -3.45989,0.683927 -0.17356,1.224302 0.27503,1.374499 4.10517,1.374499 h 3.55705 l -0.0837,0.727604 -0.0837,0.727604 -4.82864,0.07212 -4.82865,0.07211 z m 11.25263,4.000638 c -0.36811,-0.368112 -0.66929,-0.91283 -0.66929,-1.210487 0,-0.452155 0.16879,-0.541193 1.02593,-0.541193 0.58917,0 1.16616,0.168962 1.35532,0.396875 0.2377,0.286415 0.86663,0.396875 2.25971,0.396875 2.49741,0 2.76737,-0.116748 2.76737,-1.196774 v -0.875575 l -3.19895,-0.0883 c -2.98943,-0.08252 -3.23205,-0.129215 -3.70417,-0.712928 -0.69773,-0.862646 -0.6974,-3.180452 5.8e-4,-4.042419 0.48962,-0.604658 0.62886,-0.624624 4.35617,-0.624624 4.18184,0 4.45479,0.08639 4.8066,1.521354 0.17466,0.71241 0.15351,0.727604 -1.01261,0.727604 -0.8146,0 -1.23914,-0.12543 -1.3433,-0.396875 -0.11745,-0.306081 -0.62686,-0.396875 -2.2267,-0.396875 -2.34593,0 -3.07038,0.330953 -2.92827,1.337741 0.0899,0.636715 0.14094,0.64875 3.32859,0.784541 3.98613,0.169806 4.17102,0.292701 4.17102,2.77251 0,2.548736 -0.13254,2.626921 -4.63107,2.731841 -3.64455,0.085 -3.69546,0.07819 -4.35693,-0.583286 z m 13.7515,0.314939 c -0.0699,-0.190755 -0.15822,-1.89464 -0.19631,-3.786411 l -0.0693,-3.439583 -1.78593,-0.07824 -1.78594,-0.07823 v -0.78763 -0.78763 l 4.82865,0.07212 4.82864,0.07211 0.0837,0.727604 c 0.0837,0.727137 0.0826,0.727604 -1.62125,0.727604 -1.14694,0 -1.80662,0.122491 -2.01557,0.374251 -0.20784,0.250429 -0.29562,1.497838 -0.26533,3.770312 l 0.0453,3.396062 -0.95981,0.08225 c -0.61336,0.05256 -1.00567,-0.04295 -1.08685,-0.264584 z m 7.41517,-0.314939 c -0.64424,-0.644236 -0.6693,-0.792467 -0.6693,-3.9593 0,-4.65922 -0.12849,-4.539255 4.86197,-4.539255 5.02734,0 4.79532,-0.217628 4.79532,4.497917 0,4.675567 0.20658,4.471095 -4.63106,4.583924 -3.64456,0.085 -3.69546,0.07819 -4.35693,-0.583286 z m 6.32052,-1.118529 c 0.3441,-0.132042 0.41852,-0.644524 0.41852,-2.882109 0,-3.148693 0.0923,-3.042709 -2.64858,-3.042709 -2.45404,0 -2.64309,0.217639 -2.64309,3.042709 0,2.82507 0.18905,3.042708 2.64309,3.042708 0.99635,0 1.99988,-0.07227 2.23006,-0.160599 z"
       id="path2" /><path
       style="fill:#000000"
       id="path1" /><path
       style="fill:#008000"
       d="m 65.097119,31.916407 c 0,-0.242032 1.02524,-5.223032 1.45915,-7.089082 0.11185,-0.481027 0.32067,-0.595313 1.08774,-0.595313 0.74806,0 0.91599,0.08679 0.79218,0.409439 -0.1418,0.369529 -0.10013,0.369529 0.42744,0 1.5844,-1.109757 3.50952,0.03415 3.50952,2.085364 0,1.388347 -0.54282,2.457344 -1.49886,2.951728 -0.94286,0.487573 -1.81257,0.474254 -2.54531,-0.03898 -0.66632,-0.466711 -0.70243,-0.420908 -1.05579,1.339325 -0.19764,0.984499 -0.28096,1.064062 -1.19427,1.140451 -0.57595,0.04817 -0.9818,-0.03571 -0.9818,-0.202932 z m 4.91785,-4.110592 c 0.60251,-0.91955 0.31128,-1.986303 -0.54227,-1.986303 -1.08401,0 -1.87377,1.602232 -1.14767,2.328333 0.51168,0.511681 1.22519,0.367273 1.68994,-0.34203 z m -38.78452,2.073529 c -1.47179,-0.587546 -2.108,-2.141426 -1.48613,-3.629755 0.58146,-1.391646 1.81776,-2.071407 3.53634,-1.944417 1.64267,0.121379 1.73637,0.187117 1.43355,1.005721 -0.19948,0.539247 -0.38201,0.615693 -1.31012,0.548682 -0.90654,-0.06545 -1.14801,0.02847 -1.51564,0.589543 -0.7944,1.212397 0.20626,2.336265 1.72624,1.938784 0.45152,-0.118076 0.50048,-0.04016 0.3554,0.565564 -0.0925,0.386377 -0.2012,0.742281 -0.24147,0.790896 -0.15018,0.181298 -2.11607,0.287519 -2.49817,0.134982 z m 4.51822,-0.511477 c -0.66932,-0.563195 -0.81388,-0.880719 -0.81307,-1.785937 0.002,-2.248435 1.66744,-3.586179 4.06435,-3.264686 1.97981,0.265548 2.8821,2.225312 1.89945,4.125563 -0.83989,1.624161 -3.70778,2.139228 -5.15073,0.92506 z m 2.93542,-1.07582 c 0.7076,-0.640367 0.66479,-2.379451 -0.0643,-2.610845 -0.83452,-0.264866 -1.56853,0.55162 -1.56853,1.744769 0,1.288211 0.73535,1.67826 1.63281,0.866076 z m 10.80261,1.231632 c -1.42019,-1.420186 0.0471,-3.175 2.65475,-3.175 0.84145,0 1.00247,-0.07906 0.86906,-0.426718 -0.12928,-0.336904 -0.43382,-0.400767 -1.4469,-0.303422 -1.10917,0.106577 -1.28316,0.05807 -1.28316,-0.357723 0,-0.645245 0.78913,-1.028804 2.11667,-1.028804 2.572,0 3.04614,1.239458 1.94832,5.093229 -0.14488,0.508568 -1.68374,0.676219 -1.68374,0.183435 0,-0.15671 -0.25844,-0.09857 -0.58804,0.132292 -0.81033,0.567578 -1.95394,0.515728 -2.58696,-0.117289 z m 3.1108,-1.521354 c 0.37823,-0.572468 0.36287,-0.595313 -0.4003,-0.595313 -0.85351,0 -1.54646,0.587209 -1.2531,1.061874 0.28132,0.455187 1.21928,0.190513 1.6534,-0.466561 z m 7.86941,1.730952 c -0.85292,-0.489147 -1.17324,-1.069249 -1.18221,-2.140967 -0.0171,-2.044438 1.30987,-3.360298 3.38871,-3.360298 1.51132,0 2.23272,0.680956 2.26529,2.13828 0.0261,1.169012 0.0261,1.169012 -1.89211,1.246749 -1.45535,0.05898 -1.91822,0.169491 -1.91822,0.45798 0,0.500681 1.09031,0.757436 2.2737,0.535431 0.89845,-0.168551 0.93746,-0.146175 0.75635,0.433901 -0.10503,0.33639 -0.32374,0.699091 -0.48603,0.806003 -0.45648,0.300724 -2.6144,0.221907 -3.20548,-0.117079 z m 2.77812,-3.649182 c 0,-0.985795 -1.82783,-0.658681 -1.84803,0.33073 -0.002,0.10914 0.41267,0.198437 0.92199,0.198437 0.74965,0 0.92604,-0.100794 0.92604,-0.529167 z m -21.43125,3.339682 c 0,-0.342024 0.1597,-1.125877 0.93971,-4.612539 0.11352,-0.507403 0.2815,-0.597412 0.9876,-0.529167 0.52037,0.05029 0.82406,0.213873 0.78193,0.421172 -0.0511,0.251633 0.14081,0.230504 0.74518,-0.08203 1.09606,-0.566794 2.07205,-0.404563 2.70718,0.44999 0.49802,0.670072 0.50604,0.807933 0.15396,2.645834 -0.37144,1.938928 -0.37144,1.938928 -1.35912,2.021046 -1.12837,0.09381 -1.15383,0.01656 -0.67626,-2.052381 0.34774,-1.506487 0.11037,-2.035728 -0.78551,-1.751388 -0.57541,0.182628 -0.99097,1.0215 -1.31937,2.663318 -0.19695,0.984666 -0.28003,1.064049 -1.19349,1.140451 -0.73238,0.06125 -0.98181,-0.0186 -0.98181,-0.314311 z m 13.75834,0.11138 c 0,-0.242032 1.02524,-5.223032 1.45915,-7.089082 0.11088,-0.476837 0.32172,-0.595313 1.05943,-0.595313 1.14232,0 1.14403,0.04693 0.16449,4.497917 -0.72785,3.307291 -0.72785,3.307291 -1.70546,3.389409 -0.57296,0.04813 -0.97761,-0.03587 -0.97761,-0.202931 z m -6.09544,-10.574465 c -2.26454,-0.443644 -4.60665,-2.180915 -5.6436,-4.186154 -0.39189,-0.757834 -0.39189,-0.757834 1.9599,-2.132472 1.29348,-0.75605 2.41254,-1.374637 2.48679,-1.374637 0.0742,0 0.31104,0.340417 0.5262,0.756482 0.46671,0.902513 1.71947,1.483165 2.75368,1.276323 0.41078,-0.08216 3.44939,-1.709215 6.75246,-3.6156872 3.30308,-1.9064715 6.16078,-3.5258614 6.35045,-3.5986439 0.25843,-0.099169 0.17291,0.7691379 -0.34125,3.4648279 -0.6861,3.5971602 -0.6861,3.5971602 -5.22533,6.2265692 -5.44322,3.153067 -7.05367,3.686023 -9.6193,3.183392 z m -12.16081,-3.821794 c 0,-0.434324 0.99834,-5.8287362 1.21408,-6.5601429 0.20107,-0.6816897 9.24478,-5.7030944 10.91288,-6.0592379 2.38832,-0.5099141 5.00769,0.1552591 6.89627,1.7512652 0.89085,0.7528334 2.40802,2.6648544 2.40802,3.0347074 0,0.1055995 -1.0942,0.8234985 -2.43156,1.5953312 -1.83077,1.0566038 -2.46249,1.310503 -2.55679,1.0276178 -0.0689,-0.206642 -0.4538,-0.7042804 -0.85538,-1.105862 -1.33075,-1.3307494 -2.03352,-1.1207358 -8.29021,2.4774432 -3.06764,1.764176 -5.96448,3.440762 -6.43742,3.725746 -0.72277,0.435526 -0.85989,0.453567 -0.85989,0.113132 z"
       id="path3" /></g></svg>
